HIERARCHY
ROOT Hips
{
	OFFSET 0.000000 0.000000 0.000000 
	CHANNELS 6 Xposition Yposition Zposition Zrotation Yrotation Xrotation
	JOINT LeftUpLeg
	{
		OFFSET 1.363060 -1.794630 0.839290 
		CHANNELS 3 Zrotation Yrotation Xrotation
		JOINT LeftLeg
		{
			OFFSET 2.448110 -6.726130 0.000000 
			CHANNELS 3 Zrotation Yrotation Xrotation
			JOINT LeftFoot
			{
				OFFSET 2.562200 -7.039590 0.000000 
				CHANNELS 3 Zrotation Yrotation Xrotation
				JOINT LeftToeBase
				{
					OFFSET 0.157640 -0.433110 2.322550 
					CHANNELS 3 Zrotation Yrotation Xrotation
					End Site
					{
						OFFSET 0.000000 0.000000 0.000000 
					}
				}
			}
		}
	}
	JOINT RightUpLeg
	{
		OFFSET -1.305520 -1.794630 0.839290 
		CHANNELS 3 Zrotation Yrotation Xrotation
		JOINT RightLeg
		{
			OFFSET -2.542530 -6.985550 0.000000 
			CHANNELS 3 Zrotation Yrotation Xrotation
			JOINT RightFoot
			{
				OFFSET -2.568260 -7.056230 0.000000 
				CHANNELS 3 Zrotation Yrotation Xrotation
				JOINT RightToeBase
				{
					OFFSET -0.164730 -0.452590 2.363150 
					CHANNELS 3 Zrotation Yrotation Xrotation
					End Site
					{
						OFFSET 0.000000 0.000000 0.000000 
					}
				}
			}
		}
	}
	JOINT Spine
	{
		OFFSET 0.028270 2.035590 -0.193380 
		CHANNELS 3 Zrotation Yrotation Xrotation
		JOINT Spine1
		{
			OFFSET 0.056720 2.048850 -0.042750 
			CHANNELS 3 Zrotation Yrotation Xrotation
			JOINT Neck1
			{
				OFFSET -0.054170 1.746240 0.172020 
				CHANNELS 3 Zrotation Yrotation Xrotation
				JOINT Head
				{
					OFFSET 0.104070 1.761360 -0.123970 
					CHANNELS 3 Zrotation Yrotation Xrotation
					End Site
					{
						OFFSET 0.000000 0.000000 0.000000 
					}
				}
			}
			JOINT LeftArm
			{
				OFFSET 3.362410 1.200890 -0.311210 
				CHANNELS 3 Zrotation Yrotation Xrotation
				JOINT LeftForeArm
				{
					OFFSET 4.983000 -0.000000 -0.000000 
					CHANNELS 3 Zrotation Yrotation Xrotation
					JOINT LeftHand
					{
						OFFSET 3.483560 -0.000000 -0.000000 
						CHANNELS 3 Zrotation Yrotation Xrotation
						JOINT LeftHandIndex1
						{
							OFFSET 0.715260 -0.000000 -0.000000 
							CHANNELS 3 Zrotation Yrotation Xrotation
							End Site
							{
								OFFSET 0.000000 0.000000 0.000000 
							}
						}
					}
				}
			}
			JOINT RightArm
			{
				OFFSET -3.136600 1.374050 -0.404650 
				CHANNELS 3 Zrotation Yrotation Xrotation
				JOINT RightForeArm
				{
					OFFSET -5.241900 -0.000000 -0.000000 
					CHANNELS 3 Zrotation Yrotation Xrotation
					JOINT RightHand
					{
						OFFSET -3.444170 -0.000000 -0.000000 
						CHANNELS 3 Zrotation Yrotation Xrotation
						JOINT RightHandIndex1
						{
							OFFSET -0.622530 -0.000000 -0.000000 
							CHANNELS 3 Zrotation Yrotation Xrotation
							End Site
							{
								OFFSET 0.000000 0.000000 0.000000 
							}
						}
					}
				}
			}
		}
	}
}
MOTION
Frames: 9
Frame Time: 0.041667
15.540627 17.414252 -24.211221 -0.028023 -3.006477 10.236776 -15.030363 -26.727759 -11.936047 -2.839329 4.717693 14.847560 -4.170184 24.617054 -17.956740 0.040900 1.305200 3.588900 23.056733 6.152937 -25.169958 -3.658114 -14.319512 43.350128 1.002441 -14.582366 -12.860591 -0.138500 -2.398900 6.609300 1.075026 0.216314 -4.061386 0.780140 0.636307 -7.035555 10.024788 -2.137384 16.836659 4.443000 -0.808700 7.940800 -85.010556 -2.112321 2.588132 8.921709 -9.389009 -1.936212 -1.259802 1.148803 59.338246 -7.125000 0.000000 0.000000 83.924333 0.719123 34.412527 -10.777963 10.798924 -2.302444 -2.156072 -0.255592 4.364270 7.125000 0.000000 0.000000 
15.551264 17.431336 -24.179632 -0.030849 -3.223211 10.319877 -15.037177 -27.007221 -11.439232 -2.918348 4.487509 14.337634 -4.193169 24.752097 -18.388070 0.093100 1.967600 5.416100 22.539551 6.519687 -25.271125 -3.446373 -14.178567 42.616941 1.071958 -15.105354 -13.188331 -0.151200 -2.505800 6.905800 1.066351 0.223261 -4.074933 0.764580 0.633387 -7.038905 10.054884 -1.980788 16.686702 4.496800 -0.752100 7.811700 -84.696587 -2.033453 4.169780 8.908970 -9.364350 -1.955221 -1.294090 1.121914 57.362431 -7.125000 0.000000 0.000000 83.771371 0.701435 35.149638 -10.901000 10.966599 -2.381678 -2.167637 -0.268705 3.901779 7.125000 0.000000 0.000000 
15.558892 17.445733 -24.146862 -0.259261 -3.522959 10.319944 -14.794478 -27.242546 -10.825295 -3.006090 4.237281 13.806367 -4.207081 24.867312 -19.145886 0.198500 2.868800 7.913700 22.264484 6.928089 -25.125674 -3.163692 -13.935663 41.626459 1.108553 -15.546753 -13.912074 -0.262800 -3.297700 9.108800 1.035366 0.338370 -4.086174 0.513659 0.660383 -7.094004 10.027757 -1.902076 16.653610 4.481500 -0.712200 7.795900 -84.261123 -1.946133 5.331125 9.026129 -9.505011 -2.000180 -1.335306 1.078663 56.279839 -7.125000 0.000000 0.000000 83.831556 0.835330 35.351510 -10.804906 10.884015 -2.347847 -2.162416 -0.280411 4.238844 7.125000 0.000000 0.000000 
15.565124 17.458842 -24.109578 -0.250776 -3.782649 10.287030 -14.873851 -27.399340 -10.076172 -3.113686 3.912986 13.103120 -4.273640 25.171802 -19.645078 0.274900 3.372300 9.317100 21.700243 7.347420 -24.944784 -2.869076 -13.668918 40.559204 1.240413 -16.499456 -14.531270 -0.357300 -3.840100 10.627300 0.982031 0.434836 -4.092881 0.316192 0.684764 -7.119457 9.914662 -1.886134 16.708519 4.389100 -0.691600 7.849300 -83.835019 -1.962649 5.942459 9.107357 -9.603109 -2.021986 -1.353789 1.055184 55.940137 -7.125000 0.000000 0.000000 83.909043 1.007487 35.442313 -10.667012 10.739616 -2.296370 -2.156530 -0.279567 4.563336 7.125000 0.000000 0.000000 
15.569529 17.475388 -24.072402 0.002641 -3.890193 10.258227 -15.212416 -27.624988 -9.349139 -3.218977 3.587563 12.385876 -4.333308 25.483574 -20.011315 0.303600 3.542900 9.794100 20.812157 7.908969 -24.649307 -2.522922 -13.331125 39.274963 1.358551 -17.440632 -15.600946 -0.562200 -4.802600 13.346300 0.941366 0.434643 -4.093795 0.323317 0.681435 -7.104310 9.861046 -1.831613 16.684851 4.358300 -0.666000 7.836900 -83.515752 -2.150369 6.119475 9.068252 -9.550608 -2.001116 -1.358960 1.043832 56.254606 -7.125000 0.000000 0.000000 83.817433 1.021898 35.860632 -10.782861 10.857623 -2.318780 -2.156974 -0.273961 4.317885 7.125000 0.000000 0.000000 
15.570926 17.496125 -24.038342 0.176836 -3.891965 10.248418 -15.410013 -27.935186 -8.706570 -3.309618 3.291814 11.728508 -4.365308 25.683121 -20.367853 0.421500 4.167000 11.547000 19.938105 8.726163 -24.167747 -2.119458 -12.911321 37.791735 1.250412 -17.566870 -17.822456 -1.200400 -6.951600 19.572000 0.912269 0.399378 -4.135436 0.322332 0.662187 -7.257548 9.955429 -1.694400 16.562074 4.444000 -0.611800 7.745300 -83.239775 -2.201143 6.178015 9.043701 -9.508628 -1.981566 -1.354430 1.043858 56.836112 -7.125000 0.000000 0.000000 83.650864 0.816024 36.715128 -11.013362 11.107875 -2.366959 -2.155377 -0.296472 3.818751 7.125000 0.000000 0.000000 
15.568992 17.512457 -24.005249 0.018435 -3.941142 10.374797 -15.186634 -28.190194 -8.270006 -3.382274 3.048978 11.163101 -4.480856 26.077388 -20.600566 0.526100 4.648400 12.908300 19.419807 9.836914 -23.580955 -1.665600 -12.418228 36.111672 1.157710 -17.940723 -19.960614 -1.906500 -8.668600 24.764000 0.910549 0.427077 -4.184275 0.217407 0.658105 -7.366977 10.058844 -1.570572 16.421323 4.532800 -0.561600 7.649400 -82.963558 -2.227838 5.975918 8.932639 -9.368723 -1.971699 -1.332919 1.085710 57.253366 -7.125000 0.000000 0.000000 83.426840 0.609862 37.893669 -11.284549 11.417374 -2.416728 -2.146606 -0.349306 3.039714 7.125000 0.000000 0.000000 
15.561471 17.516325 -23.972693 -0.328961 -4.051237 10.578727 -14.689398 -28.446603 -7.937590 -3.454565 2.834028 10.650491 -4.593301 26.488593 -21.134758 0.550100 4.751600 13.201400 19.183074 11.036083 -22.974786 -1.195436 -11.870459 34.287833 1.460756 -19.738724 -20.690196 -1.854200 -8.555600 24.414700 0.940902 0.515766 -4.191168 0.120695 0.677765 -7.264152 9.981672 -1.550891 16.361840 4.489100 -0.550200 7.647900 -82.713653 -2.489970 5.430544 8.792236 -9.198880 -1.954474 -1.299669 1.140548 57.884121 -7.125000 0.000000 0.000000 83.225970 0.647949 38.597479 -11.416153 11.566648 -2.440314 -2.141191 -0.373674 2.607272 7.125000 0.000000 0.000000 
15.548148 17.517829 -23.939171 -0.465870 -4.146555 10.706795 -14.421753 -28.866104 -7.548002 -3.516009 2.662233 10.264377 -4.605333 26.665175 -21.880305 0.638700 5.112900 14.230800 18.721905 12.263852 -22.325938 -0.737951 -11.275075 32.359733 2.142944 -22.645411 -20.320638 -1.342700 -7.336500 20.716300 0.967132 0.569527 -4.192164 0.142576 0.696391 -7.158537 9.823743 -1.529671 16.385807 4.387500 -0.536000 7.692300 -82.495765 -2.756376 4.975738 8.712568 -9.108775 -1.939676 -1.284219 1.163389 58.592767 -7.125000 0.000000 0.000000 83.013052 0.729052 39.361334 -11.423916 11.565170 -2.435991 -2.138673 -0.384436 2.176912 7.125000 0.000000 0.000000 
